<svg xmlns="http://www.w3.org/2000/svg" xmlns:xlink="http://www.w3.org/1999/xlink" version="1.1" x="0px" y="0px" viewBox="0 0 48 60" enable-background="new 0 0 48 48" xml:space="preserve"><g><path d="M41.526,0H6.475c-0.546,0-0.99,0.443-0.99,0.99v46.021c0,0.547,0.443,0.989,0.99,0.989h35.052   c0.545,0,0.989-0.442,0.989-0.989V0.99C42.516,0.443,42.071,0,41.526,0z M11.102,8.554c0-0.547,0.443-0.99,0.99-0.99h9.269   c0.546,0,0.99,0.442,0.99,0.99v12.355c0,0.547-0.443,0.99-0.99,0.99h-9.269c-0.546,0-0.99-0.443-0.99-0.99V8.554z M35.907,40.438   H12.092c-0.546,0-0.99-0.443-0.99-0.99s0.443-0.989,0.99-0.989h23.815c0.545,0,0.989,0.442,0.989,0.989   S36.452,40.438,35.907,40.438z M35.907,34.261H12.092c-0.546,0-0.99-0.443-0.99-0.99s0.443-0.989,0.99-0.989h23.815   c0.545,0,0.989,0.442,0.989,0.989S36.452,34.261,35.907,34.261z M35.907,28.078H12.092c-0.546,0-0.99-0.442-0.99-0.989   s0.443-0.989,0.99-0.989h23.815c0.545,0,0.989,0.442,0.989,0.989S36.452,28.078,35.907,28.078z M35.907,21.901h-8.109   c-0.547,0-0.989-0.443-0.989-0.99s0.442-0.99,0.989-0.99h8.109c0.545,0,0.989,0.443,0.989,0.99S36.452,21.901,35.907,21.901z    M35.907,15.721h-8.109c-0.547,0-0.989-0.443-0.989-0.99c0-0.547,0.442-0.99,0.989-0.99h8.109c0.545,0,0.989,0.442,0.989,0.99   C36.896,15.278,36.452,15.721,35.907,15.721z M35.907,9.543h-8.109c-0.547,0-0.989-0.442-0.989-0.989   c0-0.547,0.442-0.99,0.989-0.99h8.109c0.545,0,0.989,0.442,0.989,0.99C36.896,9.101,36.452,9.543,35.907,9.543z"/></g><text x="0" y="63" fill="#000000" font-size="5px" font-weight="bold" font-family="'Helvetica Neue', Helvetica, Arial-Unicode, Arial, Sans-serif">Created by Creative Stall</text><text x="0" y="68" fill="#000000" font-size="5px" font-weight="bold" font-family="'Helvetica Neue', Helvetica, Arial-Unicode, Arial, Sans-serif">from the Noun Project</text></svg>