<svg xmlns="http://www.w3.org/2000/svg" xmlns:xlink="http://www.w3.org/1999/xlink" version="1.1" x="0px" y="0px" viewBox="0 0 100 100" enable-background="new 0 0 100 100" xml:space="preserve"><path d="M39.8,47c0,0.8,0.7,1.4,1.5,1.5c0.8,0,1.4-0.7,1.5-1.5v-1.6c2.2-0.5,3.8-2.2,3.9-4.2c0-1-0.5-2-1.2-2.8  c-1-1-2.5-1.6-4.1-1.6c-0.9,0-1.6-0.3-2.1-0.8c-0.2-0.2-0.4-0.4-0.4-0.7c0-0.7,1-1.5,2.4-1.5c0.7,0,1.4,0.3,1.9,0.6  c0.2,0.2,0.6,0.5,0.6,0.9c0,0.8,0.6,1.4,1.4,1.4c0.8,0,1.5-0.6,1.5-1.4c0-1.2-0.6-2.4-1.7-3.2c-0.6-0.5-1.4-0.8-2.2-1l0.1-1.7  c0-0.8-0.7-1.5-1.5-1.5c-0.8,0.1-1.5,0.7-1.5,1.5v1.6c-2.3,0.5-3.9,2.2-3.9,4.2c0,1,0.4,2,1.2,2.8c1,1,2.5,1.6,4.1,1.6  c0.8,0,1.6,0.3,2,0.7c0.2,0.2,0.4,0.5,0.4,0.8c0,0.7-1,1.4-2.4,1.4c-0.8,0-1.6-0.3-2-0.7c-0.2-0.2-0.4-0.5-0.4-0.7  c0-0.8-0.7-1.5-1.5-1.5c-0.8,0-1.5,0.6-1.5,1.4c0,1,0.4,2,1.2,2.8c0.7,0.7,1.7,1.2,2.7,1.4V47z M62.7,49.2v-3.6h-11v3.6H62.7z M50,5  C25.1,5,5,25.2,5,50c0,24.9,20.1,45,45,45c24.9,0,45-20.1,45-45C95,25.2,74.9,5,50,5L50,5z M70,34.9H59.4V24.3L70,34.9z M71.3,74.6  c0,1.4-1.1,2.5-2.5,2.5H31.2c-1.4,0-2.5-1.1-2.5-2.5V25.5c0-1.4,1.1-2.5,2.5-2.5H55v14.1c0,1.3,1,2.3,2.2,2.3h14.1V74.6z M62.7,57.7  V54H37.3v3.7H62.7z M62.7,66.2v-3.7H37.3v3.7H62.7z"></path></svg>