<svg xmlns="http://www.w3.org/2000/svg" xmlns:xlink="http://www.w3.org/1999/xlink" version="1.1" x="0px" y="0px" viewBox="0 0 100 100" enable-background="new 0 0 100 100" xml:space="preserve"><path d="M37,39.5c-1.1,0-2.1-0.3-2.7-1c-0.2-0.2-0.4-0.5-0.4-1c0-1-0.9-2-2-2c-1.2,0-2,0.9-2,2c0,1.3,0.6,2.6,1.6,3.7  c1,1,2.2,1.6,3.6,1.9L35,45.4c0,1.1,0.9,1.9,1.9,1.9c1.2,0,2-0.8,2-1.9v-2.2c3.1-0.8,5.2-2.9,5.2-5.6c0-1.5-0.6-2.7-1.6-3.8  c-1.3-1.3-3.3-2.1-5.6-2.1c-1.1,0-2.1-0.4-2.7-1c-0.2-0.2-0.4-0.5-0.4-1c0-1,1.3-2,3.1-2c1,0,1.9,0.3,2.6,0.8  c0.3,0.2,0.8,0.6,0.7,1.2c0,1.1,0.8,2,2,2c1,0,1.9-0.8,1.9-1.9c0-1.7-0.8-3.3-2.3-4.4c-0.8-0.6-1.8-1-2.9-1.3v-2.3  c0.1-1-0.8-1.9-2-1.9c-1,0.1-1.9,0.9-1.9,1.9V24c-3.1,0.7-5.3,2.9-5.3,5.6c0,1.4,0.6,2.7,1.6,3.8c1.4,1.3,3.4,2.2,5.6,2.2  c1.1,0,2.2,0.3,2.8,1c0.2,0.2,0.5,0.6,0.4,1C40.3,38.5,39,39.5,37,39.5L37,39.5z M71.2,62.7v-6.1H28.8v6.1H71.2z M71.2,76.8v-6.1  H28.8v6.1H71.2z M71.2,48.7v-6.1H52.8v6.1H71.2z M84.3,25.6c0,0-0.3-0.3-19.4-19.4C64.4,5.6,63.3,5,62,5H18.6  c-2.3,0-4.1,1.8-4.1,4.1v81.8c0,2.3,1.8,4.1,4.1,4.1h62.8c2.2,0,4-1.8,4-4.1V28.5C85.5,27.2,85,26.2,84.3,25.6L84.3,25.6z   M22.7,86.8V13.2H58v15.3c0,2.3,1.8,4.1,4,4.1h15.3v54.3H22.7z"></path></svg>