<svg xmlns="http://www.w3.org/2000/svg" xmlns:xlink="http://www.w3.org/1999/xlink" version="1.1" x="0px" y="0px" viewBox="0 0 48 60" enable-background="new 0 0 48 48" xml:space="preserve"><g><path d="M36.711,46.422c-6.769,0-12.278-5.474-12.278-12.201S29.942,22.02,36.711,22.02c0.129,0,0.254,0.016,0.381,0.02V0.99   c0-0.547-0.442-0.99-0.989-0.99H0.99C0.443,0,0,0.443,0,0.99v46.021C0,47.558,0.443,48,0.99,48h35.113   c0.547,0,0.989-0.442,0.989-0.989v-0.608C36.965,46.406,36.84,46.422,36.711,46.422z M22.352,7.564h8.122   c0.547,0,0.989,0.442,0.989,0.99c0,0.547-0.442,0.989-0.989,0.989h-8.122c-0.546,0-0.99-0.442-0.99-0.989   C21.362,8.006,21.806,7.564,22.352,7.564z M22.352,13.742h8.122c0.547,0,0.989,0.442,0.989,0.99c0,0.547-0.442,0.99-0.989,0.99   h-8.122c-0.546,0-0.99-0.443-0.99-0.99C21.362,14.184,21.806,13.742,22.352,13.742z M22.352,19.921h8.122   c0.547,0,0.989,0.443,0.989,0.99s-0.442,0.99-0.989,0.99h-8.122c-0.546,0-0.99-0.443-0.99-0.99S21.806,19.921,22.352,19.921z    M5.627,8.554c0-0.547,0.443-0.99,0.99-0.99h9.285c0.546,0,0.99,0.442,0.99,0.99v12.355c0,0.547-0.443,0.99-0.99,0.99H6.617   c-0.547,0-0.99-0.443-0.99-0.99V8.554z M21.801,40.438H6.617c-0.547,0-0.99-0.443-0.99-0.99s0.443-0.989,0.99-0.989h15.184   c0.546,0,0.99,0.442,0.99,0.989S22.347,40.438,21.801,40.438z M21.801,34.261H6.617c-0.547,0-0.99-0.443-0.99-0.99   s0.443-0.989,0.99-0.989h15.184c0.546,0,0.99,0.442,0.99,0.989S22.347,34.261,21.801,34.261z M21.801,28.078H6.617   c-0.547,0-0.99-0.442-0.99-0.989S6.07,26.1,6.617,26.1h15.184c0.546,0,0.99,0.442,0.99,0.989S22.347,28.078,21.801,28.078z"/><path d="M36.711,23.009c-6.224,0-11.288,5.03-11.288,11.211s5.064,11.211,11.288,11.211C42.936,45.432,48,40.402,48,34.221   S42.936,23.009,36.711,23.009z M40.463,37.973c-0.193,0.193-0.446,0.29-0.699,0.29s-0.507-0.097-0.7-0.29l-2.353-2.353   l-2.352,2.353c-0.191,0.193-0.446,0.29-0.699,0.29s-0.507-0.097-0.7-0.29c-0.386-0.387-0.386-1.013,0-1.399l2.352-2.353   l-2.352-2.353c-0.386-0.387-0.386-1.013,0-1.399c0.387-0.387,1.014-0.387,1.399,0l2.352,2.352l2.352-2.352   c0.386-0.387,1.014-0.387,1.399,0c0.387,0.387,0.387,1.013,0,1.399l-2.352,2.353l2.353,2.353   C40.85,36.96,40.85,37.586,40.463,37.973z"/></g><text x="0" y="63" fill="#000000" font-size="5px" font-weight="bold" font-family="'Helvetica Neue', Helvetica, Arial-Unicode, Arial, Sans-serif">Created by Creative Stall</text><text x="0" y="68" fill="#000000" font-size="5px" font-weight="bold" font-family="'Helvetica Neue', Helvetica, Arial-Unicode, Arial, Sans-serif">from the Noun Project</text></svg>